<?xml version="1.0"?>
<svg xmlns="http://www.w3.org/2000/svg" height="512px" viewBox="-21 -21 682.66669 682.66669" width="512px"><path d="m546.273438 93.726562c-60.4375-60.441406-140.800782-93.726562-226.273438-93.726562s-165.835938 33.285156-226.273438 93.726562c-60.441406 60.4375-93.726562 140.796876-93.726562 226.273438 0 85.472656 33.285156 165.835938 93.726562 226.273438 60.4375 60.441406 140.800782 93.726562 226.273438 93.726562s165.835938-33.285156 226.273438-93.726562c60.441406-60.4375 93.726562-140.800782 93.726562-226.273438 0-85.476562-33.285156-165.835938-93.726562-226.273438zm-118.261719 348.195313c-44.023438-28.152344-99.558594-43.660156-156.378907-43.660156-28.390624 0-56.261718 3.753906-82.839843 11.15625l-10.058594-36.121094c29.851563-8.316406 61.105469-12.53125 92.898437-12.53125 64.816407 0 125.875 17.140625 176.585938 49.566406zm41.480469-62.507813c-56.871094-36.734374-125.289063-56.152343-197.859376-56.152343-36.300781 0-71.925781 4.945312-105.886718 14.691406l-10.351563-36.042969c37.332031-10.714844 76.4375-16.148437 116.238281-16.148437 79.808594 0 155.261719 21.496093 218.207032 62.152343zm41.503906-62.464843c-69.230469-44.933594-151.996094-68.6875-239.363282-68.6875-44.117187 0-87.5 6.167969-128.957031 18.320312l-10.550781-35.988281c44.882812-13.15625 91.816406-19.832031 139.507812-19.832031 94.625 0 184.460938 25.84375 259.777344 74.730469zm0 0" fill="#FFFFFF"/></svg>
